<?xml version="1.0" encoding="UTF-8" standalone="no"?>
<!-- Created with Inkscape (http://www.inkscape.org/) -->

<svg
   width="16"
   height="16"
   viewBox="0 0 4.2333332 4.2333333"
   version="1.1"
   id="svg1"
   sodipodi:docname="compat-unknown.svg"
   inkscape:version="1.3.2 (091e20e, 2023-11-25, custom)"
   xmlns:inkscape="http://www.inkscape.org/namespaces/inkscape"
   xmlns:sodipodi="http://sodipodi.sourceforge.net/DTD/sodipodi-0.dtd"
   xmlns="http://www.w3.org/2000/svg"
   xmlns:svg="http://www.w3.org/2000/svg">
  <sodipodi:namedview
     id="namedview1"
     pagecolor="#ffffff"
     bordercolor="#000000"
     borderopacity="0.25"
     inkscape:showpageshadow="2"
     inkscape:pageopacity="0.0"
     inkscape:pagecheckerboard="0"
     inkscape:deskcolor="#d1d1d1"
     inkscape:document-units="px"
     showgrid="true"
     inkscape:zoom="32"
     inkscape:cx="13.671875"
     inkscape:cy="2.703125"
     inkscape:window-width="2560"
     inkscape:window-height="1387"
     inkscape:window-x="1592"
     inkscape:window-y="-8"
     inkscape:window-maximized="1"
     inkscape:current-layer="layer1"
     showguides="true">
    <inkscape:grid
       id="grid1"
       units="px"
       originx="0"
       originy="0"
       spacingx="0.26458332"
       spacingy="0.26458333"
       empcolor="#0099e5"
       empopacity="0.30196078"
       color="#0099e5"
       opacity="0.14901961"
       empspacing="5"
       dotted="false"
       gridanglex="30"
       gridanglez="30"
       visible="true" />
  </sodipodi:namedview>
  <defs
     id="defs1" />
  <g
     inkscape:label="Layer 1"
     inkscape:groupmode="layer"
     id="layer1">
    <path
       id="path1"
       style="fill:#b3b3b3;stroke-width:0.39687499;stroke-linejoin:bevel;stroke:none;stroke-dasharray:none"
       d="M 3.9687499,2.1166666 A 1.8520833,1.8520832 0 0 1 2.1166666,3.9687498 1.8520833,1.8520832 0 0 1 0.26458323,2.1166666 1.8520833,1.8520832 0 0 1 2.1166666,0.26458335 1.8520833,1.8520832 0 0 1 3.9687499,2.1166666 Z" />
    <path
       style="color:#000000;fill:#4d4d4d;stroke-linejoin:bevel;-inkscape-stroke:none"
       d="m 2.1171875,0.06640625 c -0.28253,-10e-9 -0.5519688,0.05754133 -0.7972039,0.16151146 C 1.0747485,0.33188784 0.85371706,0.48228676 0.66800192,0.66800193 0.48228676,0.85371712 0.33188784,1.0747485 0.22791771,1.3199836 0.12394758,1.5652188 0.06640625,1.8346575 0.06640625,2.1171875 c 0,0.2825299 0.05754135,0.5519688 0.16151148,0.7972039 0.10397013,0.2452351 0.25436906,0.4662665 0.44008422,0.6519817 0.18571515,0.1857152 0.40674655,0.3361141 0.65198165,0.4400842 0.2452351,0.1039701 0.5146739,0.1615114 0.7972039,0.1615114 0.2825299,0 0.5519688,-0.057541 0.7972038,-0.1615115 C 3.1596265,3.9024871 3.3806579,3.7520881 3.566373,3.566373 3.7520882,3.3806579 3.9024871,3.1596265 4.0064572,2.9143913 4.1104273,2.6691563 4.1679687,2.3997174 4.1679687,2.1171875 c 0,-0.28253 -0.057541,-0.5519687 -0.1615115,-0.7972039 C 3.9024871,1.0747485 3.7520882,0.85371714 3.566373,0.66800197 3.3806578,0.4822868 3.1596264,0.33188788 2.9143913,0.22791774 2.6691562,0.12394761 2.3997174,0.06640626 2.1171875,0.06640625 Z m 0,0.39648438 c 0.2289083,0 0.4466338,0.0461665 0.6444614,0.12972302 C 2.9594764,0.67617017 3.1374058,0.7971167 3.2867217,0.94667676 3.4360376,1.0962369 3.55674,1.2744104 3.6401134,1.472421 c 0.083373,0.1980107 0.1294179,0.4158583 0.1294179,0.6447665 0,0.2289082 -0.046044,0.4466338 -0.1294178,0.6444613 C 3.5567401,2.9594763 3.4360377,3.1374058 3.2867217,3.2867217 3.1374058,3.4360376 2.9594764,3.55674 2.7616489,3.6401134 2.5638214,3.7234869 2.3460958,3.7695313 2.1171875,3.7695313 1.8882793,3.7695313 1.6704316,3.7234869 1.472421,3.6401135 1.2744104,3.5567401 1.0962368,3.4360376 0.94667672,3.2867217 0.7971167,3.1374058 0.67617018,2.9594763 0.59261366,2.7616488 0.50905714,2.5638213 0.46289063,2.3460957 0.46289063,2.1171875 c 0,-0.2289082 0.0461665,-0.4467559 0.12972301,-0.6447665 C 0.67617015,1.2744104 0.79711668,1.0962368 0.94667673,0.94667677 1.0962368,0.79711672 1.2744103,0.67617018 1.472421,0.59261366 1.6704316,0.50905714 1.8882792,0.46289063 2.1171875,0.46289063 Z"
       id="path4"
       sodipodi:nodetypes="ssssssssssssssssssssssssssssssssss" />
    <path
       style="font-weight:bold;font-size:3.88056px;font-family:Calibri;-inkscape-font-specification:Calibri;fill:#f9f9f9;stroke-width:0.396875;stroke-linejoin:bevel"
       d="m 2.9356528,1.5415935 q 0,0.155374 -0.045475,0.2804311 Q 2.846597,1.9470817 2.7651204,2.0380324 2.6855386,2.128983 2.5718503,2.1839323 2.4600569,2.2388816 2.3236309,2.2540401 L 2.3084725,2.623527 q -0.00189,0.034107 -0.054949,0.05116 -0.05116,0.017053 -0.1496896,0.017053 -0.062529,0 -0.1061091,-0.00189 -0.041686,-0.00379 -0.066318,-0.011369 -0.024633,-0.00758 -0.036001,-0.020843 -0.011369,-0.013264 -0.013264,-0.034107 L 1.8650882,2.1763531 q -0.00189,-0.060634 0.00568,-0.09853 0.00758,-0.037896 0.026527,-0.060634 0.020843,-0.022738 0.05116,-0.030317 0.030317,-0.00947 0.072003,-0.00947 h 0.026527 q 0.1004247,0 0.1724273,-0.032212 0.073897,-0.032212 0.1212675,-0.085266 0.04737,-0.053055 0.068213,-0.1250571 0.022738,-0.072003 0.022738,-0.1534792 0,-0.090951 -0.026527,-0.1667428 -0.024632,-0.075792 -0.077687,-0.1307415 -0.05116,-0.054949 -0.1307415,-0.083371 -0.077687,-0.030317 -0.183796,-0.030317 -0.096635,0 -0.1705325,0.018948 -0.073897,0.018948 -0.1269519,0.041686 -0.053055,0.022738 -0.089056,0.041686 -0.034107,0.018948 -0.053055,0.018948 -0.013264,0 -0.024633,-0.00758 -0.011369,-0.00947 -0.018948,-0.032212 -0.00758,-0.022738 -0.013264,-0.064423 -0.00379,-0.041686 -0.00379,-0.1061091 0,-0.066318 0.00568,-0.096635 0.00568,-0.0303169 0.024632,-0.0492649 0.018948,-0.018948 0.072003,-0.0435805 0.053055,-0.0265273 0.1269519,-0.0473701 0.073897,-0.0227376 0.164848,-0.0378961 0.090951,-0.0151584 0.1894805,-0.0151584 0.2235869,0 0.3827505,0.0625286 0.1591636,0.0606337 0.2595882,0.16484795 0.1023195,0.1042143 0.1496896,0.2387454 0.04737,0.1345312 0.04737,0.2842207 z M 2.3747907,3.1654411 q 0,0.077687 -0.013264,0.1307415 -0.011369,0.053055 -0.043581,0.085266 -0.030317,0.032212 -0.083371,0.045475 -0.05116,0.015158 -0.1269519,0.015158 -0.079582,0 -0.1307415,-0.015158 -0.05116,-0.013264 -0.083371,-0.045475 -0.030317,-0.032212 -0.043581,-0.085266 -0.011369,-0.053055 -0.011369,-0.1307415 0,-0.079582 0.011369,-0.1326363 0.013264,-0.054949 0.043581,-0.087161 0.032212,-0.034107 0.083371,-0.04737 0.05116,-0.015158 0.1307415,-0.015158 0.075792,0 0.1269519,0.015158 0.053055,0.013264 0.083371,0.04737 0.032212,0.032212 0.043581,0.087161 0.013264,0.053055 0.013264,0.1326363 z"
       id="text4"
       aria-label="?" />
  </g>
</svg>
