<?xml version="1.0" encoding="UTF-8" standalone="no"?>
<!-- Created with Inkscape (http://www.inkscape.org/) -->

<svg
   width="16"
   height="16"
   viewBox="0 0 4.2333332 4.2333333"
   version="1.1"
   id="svg1"
   sodipodi:docname="compat-full.svg"
   inkscape:version="1.3.2 (091e20e, 2023-11-25, custom)"
   xmlns:inkscape="http://www.inkscape.org/namespaces/inkscape"
   xmlns:sodipodi="http://sodipodi.sourceforge.net/DTD/sodipodi-0.dtd"
   xmlns="http://www.w3.org/2000/svg"
   xmlns:svg="http://www.w3.org/2000/svg">
  <sodipodi:namedview
     id="namedview1"
     pagecolor="#ffffff"
     bordercolor="#000000"
     borderopacity="0.25"
     inkscape:showpageshadow="2"
     inkscape:pageopacity="0.0"
     inkscape:pagecheckerboard="0"
     inkscape:deskcolor="#d1d1d1"
     inkscape:document-units="px"
     showgrid="true"
     inkscape:zoom="22.627417"
     inkscape:cx="13.722291"
     inkscape:cy="2.7621359"
     inkscape:window-width="2560"
     inkscape:window-height="1387"
     inkscape:window-x="1592"
     inkscape:window-y="-8"
     inkscape:window-maximized="1"
     inkscape:current-layer="layer1"
     showguides="true">
    <inkscape:grid
       id="grid1"
       units="px"
       originx="0"
       originy="0"
       spacingx="0.26458332"
       spacingy="0.26458333"
       empcolor="#0099e5"
       empopacity="0.30196078"
       color="#0099e5"
       opacity="0.14901961"
       empspacing="5"
       dotted="false"
       gridanglex="30"
       gridanglez="30"
       visible="true" />
  </sodipodi:namedview>
  <defs
     id="defs1" />
  <g
     inkscape:label="Layer 1"
     inkscape:groupmode="layer"
     id="layer1">
    <path
       id="path1"
       style="fill:#25dd25;stroke-width:0.39687499;stroke-linejoin:bevel;stroke:none;stroke-dasharray:none;fill-opacity:1"
       d="M 3.9687499,2.1166666 A 1.8520833,1.8520832 0 0 1 2.1166666,3.9687498 1.8520833,1.8520832 0 0 1 0.26458323,2.1166666 1.8520833,1.8520832 0 0 1 2.1166666,0.26458335 1.8520833,1.8520832 0 0 1 3.9687499,2.1166666 Z" />
    <path
       style="color:#000000;fill:#117011;stroke-linejoin:bevel;-inkscape-stroke:none;fill-opacity:1"
       d="m 2.1171875,0.06640625 c -0.28253,-10e-9 -0.5519688,0.05754133 -0.7972039,0.16151146 C 1.0747485,0.33188784 0.85371706,0.48228676 0.66800192,0.66800193 0.48228676,0.85371712 0.33188784,1.0747485 0.22791771,1.3199836 0.12394758,1.5652188 0.06640625,1.8346575 0.06640625,2.1171875 c 0,0.2825299 0.05754135,0.5519688 0.16151148,0.7972039 0.10397013,0.2452351 0.25436906,0.4662665 0.44008422,0.6519817 0.18571515,0.1857152 0.40674655,0.3361141 0.65198165,0.4400842 0.2452351,0.1039701 0.5146739,0.1615114 0.7972039,0.1615114 0.2825299,0 0.5519688,-0.057541 0.7972038,-0.1615115 C 3.1596265,3.9024871 3.3806579,3.7520881 3.566373,3.566373 3.7520882,3.3806579 3.9024871,3.1596265 4.0064572,2.9143913 4.1104273,2.6691563 4.1679687,2.3997174 4.1679687,2.1171875 c 0,-0.28253 -0.057541,-0.5519687 -0.1615115,-0.7972039 C 3.9024871,1.0747485 3.7520882,0.85371714 3.566373,0.66800197 3.3806578,0.4822868 3.1596264,0.33188788 2.9143913,0.22791774 2.6691562,0.12394761 2.3997174,0.06640626 2.1171875,0.06640625 Z m 0,0.39648438 c 0.2289083,0 0.4466338,0.0461665 0.6444614,0.12972302 C 2.9594764,0.67617017 3.1374058,0.7971167 3.2867217,0.94667676 3.4360376,1.0962369 3.55674,1.2744104 3.6401134,1.472421 c 0.083373,0.1980107 0.1294179,0.4158583 0.1294179,0.6447665 0,0.2289082 -0.046044,0.4466338 -0.1294178,0.6444613 C 3.5567401,2.9594763 3.4360377,3.1374058 3.2867217,3.2867217 3.1374058,3.4360376 2.9594764,3.55674 2.7616489,3.6401134 2.5638214,3.7234869 2.3460958,3.7695313 2.1171875,3.7695313 1.8882793,3.7695313 1.6704316,3.7234869 1.472421,3.6401135 1.2744104,3.5567401 1.0962368,3.4360376 0.94667672,3.2867217 0.7971167,3.1374058 0.67617018,2.9594763 0.59261366,2.7616488 0.50905714,2.5638213 0.46289063,2.3460957 0.46289063,2.1171875 c 0,-0.2289082 0.0461665,-0.4467559 0.12972301,-0.6447665 C 0.67617015,1.2744104 0.79711668,1.0962368 0.94667673,0.94667677 1.0962368,0.79711672 1.2744103,0.67617018 1.472421,0.59261366 1.6704316,0.50905714 1.8882792,0.46289063 2.1171875,0.46289063 Z"
       id="path4"
       sodipodi:nodetypes="ssssssssssssssssssssssssssssssssss" />
    <path
       style="font-weight:bold;font-size:3.175px;font-family:Calibri;-inkscape-font-specification:Calibri;fill:#f9f9f9;stroke-width:0.396875;stroke-linejoin:bevel"
       d="m 1.0567871,2.7285154 q 0,-0.049609 -0.012402,-0.086816 0,-0.1116211 0.1488281,-0.1984375 0.099219,-0.049609 0.1488281,-0.049609 0.062012,0.012402 0.086816,0.074414 0.074414,0.1736328 0.099219,0.2356445 0.024805,0.049609 0.049609,0.049609 0.024805,0 0.049609,-0.037207 Q 2.0489746,1.9719724 2.3838379,1.5626951 2.6442871,1.2526365 2.7062988,1.2030271 2.9047363,1.054199 3.1775879,1.0417967 l 0.012402,0.062012 Q 2.9791504,1.3146482 2.4582519,2.0463865 1.9497558,2.7781248 1.7265137,3.1998045 1.6769043,3.3114255 1.6024902,3.3362302 1.5652832,3.3734373 1.4412598,3.3610349 1.3544433,3.3734373 1.3172363,3.3362302 1.2800293,3.3114255 1.2428223,3.2370115 1.1187988,2.9393552 1.0567871,2.7285154 Z"
       id="text5"
       aria-label="✓" />
  </g>
</svg>
