<?xml version="1.0" encoding="UTF-8" standalone="no"?>
<!-- Created with Inkscape (http://www.inkscape.org/) -->

<svg
   width="48"
   height="48"
   viewBox="0 0 64 64"
   version="1.1"
   id="svg1"
   xml:space="preserve"
   inkscape:version="1.3.2 (091e20e, 2023-11-25, custom)"
   sodipodi:docname="hamburger-hover.svg"
   xmlns:inkscape="http://www.inkscape.org/namespaces/inkscape"
   xmlns:sodipodi="http://sodipodi.sourceforge.net/DTD/sodipodi-0.dtd"
   xmlns="http://www.w3.org/2000/svg"
   xmlns:svg="http://www.w3.org/2000/svg"><sodipodi:namedview
     id="namedview1"
     pagecolor="#ffffff"
     bordercolor="#000000"
     borderopacity="0.25"
     inkscape:showpageshadow="2"
     inkscape:pageopacity="0.0"
     inkscape:pagecheckerboard="0"
     inkscape:deskcolor="#d1d1d1"
     inkscape:document-units="px"
     showgrid="true"
     inkscape:zoom="11.313708"
     inkscape:cx="26.383922"
     inkscape:cy="29.212349"
     inkscape:window-width="1990"
     inkscape:window-height="997"
     inkscape:window-x="1829"
     inkscape:window-y="160"
     inkscape:window-maximized="0"
     inkscape:current-layer="layer1"><inkscape:grid
       id="grid1"
       units="px"
       originx="0"
       originy="0"
       spacingx="1"
       spacingy="1"
       empcolor="#0099e5"
       empopacity="0.30196078"
       color="#0099e5"
       opacity="0.14901961"
       empspacing="5"
       dotted="false"
       gridanglex="30"
       gridanglez="30"
       visible="true" /></sodipodi:namedview><defs
     id="defs1" /><g
     inkscape:label="Layer 1"
     inkscape:groupmode="layer"
     id="layer1"><path
       style="fill:#dea900;fill-opacity:1;stroke:none;stroke-width:2"
       d="M 3,11 8,8 h 48 l 5,3 v 6 l -5,3 H 8 L 3,17 Z"
       id="path1"
       sodipodi:nodetypes="ccccccccc" /><path
       style="color:#000000;fill:#000000;fill-opacity:1;-inkscape-stroke:none"
       d="M 7.7226562,7 2,10.433594 v 7.132812 L 7.7226562,21 H 56.277344 L 62,17.566406 V 10.433594 L 56.277344,7 Z M 8.2773438,9 H 55.722656 L 60,11.566406 v 4.867188 L 55.722656,19 H 8.2773438 L 4,16.433594 v -4.867188 z"
       id="path11" /><path
       style="fill:#dea900;fill-opacity:1;stroke:none;stroke-width:2"
       d="m 3,29 5,-3 h 48 l 5,3 v 6 l -5,3 H 8 L 3,35 Z"
       id="path6-3"
       sodipodi:nodetypes="ccccccccc" /><path
       style="color:#000000;fill:#000000;fill-opacity:1;-inkscape-stroke:none"
       d="M 7.7226562,25 2,28.433594 v 7.132812 L 7.7226562,39 H 56.277344 L 62,35.566406 V 28.433594 L 56.277344,25 Z m 0.5546876,2 H 55.722656 L 60,29.566406 v 4.867188 L 55.722656,37 H 8.2773438 L 4,34.433594 v -4.867188 z"
       id="path12" /><path
       style="fill:#dea900;fill-opacity:1;stroke:none;stroke-width:2"
       d="m 3,47 5,-3 h 48 l 5,3 v 6 l -5,3 H 8 L 3,53 Z"
       id="path7-6"
       sodipodi:nodetypes="ccccccccc" /><path
       style="color:#000000;fill:#000000;fill-opacity:1;-inkscape-stroke:none"
       d="M 7.7226562,43 2,46.433594 v 7.132812 L 7.7226562,57 H 56.277344 L 62,53.566406 V 46.433594 L 56.277344,43 Z m 0.5546876,2 H 55.722656 L 60,47.566406 v 4.867188 L 55.722656,55 H 8.2773438 L 4,52.433594 v -4.867188 z"
       id="path13" /></g></svg>
