<?xml version="1.0" encoding="UTF-8" standalone="no"?>
<!-- Created with Inkscape (http://www.inkscape.org/) -->

<svg
   width="16"
   height="16"
   viewBox="0 0 4.2333332 4.2333333"
   version="1.1"
   id="svg1"
   inkscape:version="1.3.2 (091e20e, 2023-11-25, custom)"
   sodipodi:docname="infoblock.svg"
   xmlns:inkscape="http://www.inkscape.org/namespaces/inkscape"
   xmlns:sodipodi="http://sodipodi.sourceforge.net/DTD/sodipodi-0.dtd"
   xmlns="http://www.w3.org/2000/svg"
   xmlns:svg="http://www.w3.org/2000/svg">
  <sodipodi:namedview
     id="namedview1"
     pagecolor="#ffffff"
     bordercolor="#000000"
     borderopacity="0.25"
     inkscape:showpageshadow="2"
     inkscape:pageopacity="0.0"
     inkscape:pagecheckerboard="0"
     inkscape:deskcolor="#d1d1d1"
     inkscape:document-units="px"
     showgrid="true"
     inkscape:zoom="11.313708"
     inkscape:cx="9.0156115"
     inkscape:cy="8.4852814"
     inkscape:window-width="1220"
     inkscape:window-height="952"
     inkscape:window-x="2399"
     inkscape:window-y="190"
     inkscape:window-maximized="0"
     inkscape:current-layer="layer1">
    <inkscape:grid
       id="grid1"
       units="px"
       originx="0"
       originy="0"
       spacingx="0.26458332"
       spacingy="0.26458333"
       empcolor="#0099e5"
       empopacity="0.30196078"
       color="#0099e5"
       opacity="0.14901961"
       empspacing="5"
       dotted="false"
       gridanglex="30"
       gridanglez="30"
       visible="true" />
  </sodipodi:namedview>
  <defs
     id="defs1" />
  <g
     inkscape:label="Layer 1"
     inkscape:groupmode="layer"
     id="layer1">
    <path
       id="path1"
       style="stroke-width:0.396875;stroke-linejoin:bevel"
       d="m 2.1166666,0.26458333 c -0.2557194,0 -0.4993342,0.0518254 -0.7209144,0.1455459 C 1.174172,0.50384975 0.97462651,0.63946541 0.80704593,0.80704598 0.63946536,0.97462654 0.5038497,1.174172 0.41012919,1.3957522 0.31640868,1.6173324 0.26458332,1.8609472 0.26458333,2.1166666 c 10e-9,0.2557194 0.0518254,0.4993342 0.14554589,0.7209144 0.0937205,0.2215802 0.22933617,0.4211257 0.39691674,0.5887062 0.1675806,0.1675806 0.36712604,0.3031962 0.58870624,0.3969168 0.2215802,0.09372 0.465195,0.1455459 0.7209144,0.1455459 0.2557194,0 0.4993342,-0.051825 0.7209144,-0.1455459 C 3.0591612,3.7294835 3.2587067,3.5938678 3.4262873,3.4262873 3.5938679,3.2587067 3.7294836,3.0591612 3.8232041,2.837581 3.9169246,2.6160008 3.9687499,2.372386 3.9687499,2.1166666 3.9687499,1.8609472 3.9169245,1.6173324 3.823204,1.3957522 3.7294835,1.174172 3.5938679,0.97462653 3.4262873,0.80704596 3.2587067,0.63946536 3.0591612,0.5038497 2.837581,0.41012919 2.6160008,0.31640868 2.372386,0.26458333 2.1166666,0.26458333 Z m 0,0.26458333 c 0.219188,0 0.4280007,0.0444217 0.6179266,0.12475361 0.1899259,0.0803319 0.3609649,0.19657386 0.5046054,0.34021436 C 3.3828391,1.1377751 3.4990811,1.3088141 3.579413,1.49874 c 0.080332,0.1899259 0.1247536,0.3987386 0.1247536,0.6179266 0,0.219188 -0.044422,0.4280008 -0.1247536,0.6179266 C 3.4990811,2.9245191 3.3828391,3.0955581 3.2391986,3.2391986 3.0955581,3.3828391 2.9245191,3.4990811 2.7345932,3.579413 2.5446674,3.6597449 2.3358546,3.7041666 2.1166666,3.7041666 1.8974786,3.7041666 1.6886658,3.6597449 1.49874,3.579413 1.3088141,3.4990811 1.1377751,3.3828391 0.99413459,3.2391986 0.85049409,3.0955581 0.7342521,2.9245191 0.65392024,2.7345932 0.57358838,2.5446674 0.52916664,2.3358546 0.52916666,2.1166666 0.52916667,1.8974786 0.57358842,1.6886659 0.65392029,1.49874 0.73425216,1.3088141 0.85049415,1.1377751 0.99413464,0.99413464 1.1377751,0.85049416 1.3088141,0.73425216 1.49874,0.65392029 1.6886659,0.57358841 1.8974786,0.52916666 2.1166666,0.52916666 Z"
       sodipodi:nodetypes="ssssssssssssssssssssssssssssssssss" />
    <path
       d="m 2.3509328,0.90965647 q 0.106798,0 0.1791451,0.07407 0.07407,0.07407 0.07407,0.17914493 0,0.1050754 -0.07407,0.179145 -0.07407,0.07407 -0.1791451,0.07407 -0.1033529,0 -0.1774225,-0.07407 -0.07407,-0.07407 -0.07407,-0.179145 0,-0.1050755 0.072347,-0.17914503 0.07407,-0.07407 0.1791455,-0.0740699 z M 2.4577308,1.7020288 2.1046083,2.9267611 q -0.029283,0.1050755 -0.029283,0.1378039 0,0.018948 0.015503,0.036173 0.015503,0.015503 0.032728,0.015503 0.029283,0 0.058567,-0.025838 0.077515,-0.063734 0.1860353,-0.2308215 l 0.058567,0.034451 q -0.2601048,0.4530303 -0.5529381,0.4530303 -0.1119657,0 -0.1791451,-0.062012 -0.065457,-0.063734 -0.065457,-0.160197 0,-0.063734 0.029283,-0.1619196 l 0.239434,-0.8233779 q 0.034451,-0.1188559 0.034451,-0.1791451 0,-0.037896 -0.032728,-0.067179 -0.032728,-0.029283 -0.089572,-0.029283 -0.025838,0 -0.062012,0.00172 l 0.022393,-0.068902 0.5839441,-0.09474 z"
       id="text1"
       style="font-style:italic;font-weight:bold;font-size:3.52778px;font-family:'Times New Roman';-inkscape-font-specification:'Times New Roman,  Bold Italic';stroke-width:0.396875;stroke-linejoin:bevel"
       aria-label="i" />
  </g>
</svg>
