<?xml version="1.0" encoding="UTF-8" standalone="no"?>

<svg
   width="16"
   height="16"
   viewBox="0 0 1.28 1.28"
   aria-hidden="true"
   role="img"
   class="iconify iconify--emojione-monotone"
   preserveAspectRatio="xMidYMid"
   version="1.1"
   id="svg2"
   sodipodi:docname="keycap-small.svg"
   inkscape:version="1.3.2 (091e20e, 2023-11-25, custom)"
   xmlns:inkscape="http://www.inkscape.org/namespaces/inkscape"
   xmlns:sodipodi="http://sodipodi.sourceforge.net/DTD/sodipodi-0.dtd"
   xmlns="http://www.w3.org/2000/svg"
   xmlns:svg="http://www.w3.org/2000/svg">
  <defs
     id="defs2" />
  <sodipodi:namedview
     id="namedview2"
     pagecolor="#ffffff"
     bordercolor="#000000"
     borderopacity="0.25"
     inkscape:showpageshadow="2"
     inkscape:pageopacity="0.0"
     inkscape:pagecheckerboard="0"
     inkscape:deskcolor="#d1d1d1"
     inkscape:zoom="64"
     inkscape:cx="8.09375"
     inkscape:cy="6.7578125"
     inkscape:window-width="2560"
     inkscape:window-height="1387"
     inkscape:window-x="1592"
     inkscape:window-y="-8"
     inkscape:window-maximized="1"
     inkscape:current-layer="svg2" />
  <path
     style="fill:#f9f9f9;stroke-width:0.12;stroke-linejoin:bevel"
     d="M 0.28875,0.09875 0.17125,0.15 0.1275,0.25875 V 0.9475 l 0.04375,0.13125 0.095,0.05 H 1.025 L 1.105,1.075 1.15625,0.94625 v -0.705 L 1.095,0.13125 0.9925,0.0975 Z"
     id="path2" />
  <path
     d="M 1.0133333,0.08 H 0.2666667 C 0.1635893,0.08 0.08,0.1635707 0.08,0.266648 V 1.0133333 C 0.08,1.1164107 0.163589,1.2 0.2666667,1.2 H 1.0133333 C 1.1164107,1.2 1.2,1.1164107 1.2,1.0133333 V 0.266648 C 1.2,0.1635707 1.1164107,0.08 1.0133333,0.08 Z m 0.093333,0.8150987 a 0.15554933,0.15554933 0 0 1 -0.155549,0.155568 H 0.3288827 A 0.15554933,0.15554933 0 0 1 0.1733333,0.8950987 V 0.2728827 A 0.15553067,0.15553067 0 0 1 0.3288827,0.1173333 h 0.6222346 a 0.15553067,0.15553067 0 0 1 0.1555494,0.1555494 z"
     fill="#000000"
     id="path1"
     style="stroke-width:0.0186667" />
  <path
     d="m 0.91362789,0.87459874 q 0.003988,0.0109662 0.003988,0.0179446 4.9846e-4,0.00648 -0.003489,0.009969 -0.003988,0.003489 -0.0134585,0.004486 -0.008972,9.9692e-4 -0.0244246,9.9692e-4 -0.0154523,0 -0.0249231,-9.9692e-4 -0.008972,-4.9847e-4 -0.0139569,-0.001994 -0.004486,-0.001994 -0.006978,-0.004985 -0.001994,-0.002991 -0.003988,-0.007477 L 0.77106779,0.73552788 h -0.2681725 l -0.052837,0.15502164 q -0.001495,0.004486 -0.003988,0.007975 -0.002492,0.002991 -0.007477,0.005483 -0.004486,0.001994 -0.0134585,0.002991 -0.008474,9.9692e-4 -0.0224308,9.9692e-4 -0.0144554,0 -0.0239262,-0.001495 -0.008972,-9.9692e-4 -0.01296,-0.004486 -0.003489,-0.003489 -0.003489,-0.009969 4.9846e-4,-0.006978 0.004486,-0.0179446 L 0.58314766,0.27494909 q 0.001994,-0.005483 0.004985,-0.008972 0.003489,-0.003489 0.009471,-0.005483 0.00648,-0.001994 0.0159508,-0.002492 0.009969,-9.9692e-4 0.0249231,-9.9692e-4 0.0159508,0 0.0264185,9.9692e-4 0.0104677,4.9846e-4 0.0169477,0.002492 0.00648,0.001994 0.009969,0.005982 0.003489,0.003489 0.005483,0.008972 z M 0.63598462,0.34573068 H 0.63548616 L 0.52432915,0.6672386 H 0.748637 Z"
     id="text2"
     style="font-size:1.02085px;font-family:Calibri;-inkscape-font-specification:Calibri;fill:#1a1a1a;stroke-width:0.0957045;stroke-linejoin:bevel"
     aria-label="A" />
</svg>
