<?xml version="1.0" encoding="UTF-8" standalone="no"?>
<!-- Created with Inkscape (http://www.inkscape.org/) -->

<svg
   width="48"
   height="48"
   viewBox="0 0 64 64"
   version="1.1"
   id="svg1"
   xml:space="preserve"
   inkscape:version="1.3.2 (091e20e, 2023-11-25, custom)"
   sodipodi:docname="options.svg"
   xmlns:inkscape="http://www.inkscape.org/namespaces/inkscape"
   xmlns:sodipodi="http://sodipodi.sourceforge.net/DTD/sodipodi-0.dtd"
   xmlns="http://www.w3.org/2000/svg"
   xmlns:svg="http://www.w3.org/2000/svg"><sodipodi:namedview
     id="namedview1"
     pagecolor="#ffffff"
     bordercolor="#000000"
     borderopacity="0.25"
     inkscape:showpageshadow="2"
     inkscape:pageopacity="0.0"
     inkscape:pagecheckerboard="0"
     inkscape:deskcolor="#d1d1d1"
     inkscape:document-units="px"
     showgrid="true"
     inkscape:zoom="8.5390625"
     inkscape:cx="26.173833"
     inkscape:cy="33.961574"
     inkscape:window-width="1220"
     inkscape:window-height="952"
     inkscape:window-x="2448"
     inkscape:window-y="335"
     inkscape:window-maximized="0"
     inkscape:current-layer="layer1"><inkscape:grid
       id="grid1"
       units="px"
       originx="0"
       originy="0"
       spacingx="1"
       spacingy="1"
       empcolor="#0099e5"
       empopacity="0.30196078"
       color="#0099e5"
       opacity="0.14901961"
       empspacing="5"
       dotted="false"
       gridanglex="30"
       gridanglez="30"
       visible="true" /></sodipodi:namedview><defs
     id="defs1" /><g
     inkscape:label="Layer 1"
     inkscape:groupmode="layer"
     id="layer1"><path
       style="opacity:1;fill:#000000;stroke:none;stroke-width:2"
       d="M 0,9.1917412 9,0 H 54.819213 L 64,9.0261242 V 54.98483 L 55.398873,64 H 8.8605073 L 0,55.233256 Z"
       id="path1" /><path
       style="color:#000000;fill:#ffffff;-inkscape-stroke:none"
       d="M 12.681641,4.5 4.5,12.855469 V 51.503906 L 12.582031,59.5 H 51.654297 L 59.5,51.275391 V 12.705078 L 51.154297,4.5 Z m 1.261718,3 H 49.925781 L 56.5,13.962891 V 50.074219 L 50.369141,56.5 H 13.816406 L 7.5,50.251953 V 14.080078 Z"
       id="path2" /><path
       style="opacity:1;fill:#ffffff;stroke:none;stroke-width:0.5;stroke-linejoin:bevel;stroke-dasharray:none"
       d="M 23,38 38,23 v -4 c 0,-1 2,-4 4,-4 h 3 l -3,3 c -1,1 0.121317,2.289203 1,3 0.878683,0.710797 2,2 3,1 l 3,-3 v 3 c 0,2 -2.770333,3.980029 -4,4 H 41 L 26,41 v 4 c 0,1 -2,4 -4,4 h -3 l 3,-3 c 1,-1 0,-2 -1,-3 -1,-1 -2,-2 -3,-1 l -3,3 v -3 c 0,-2 3,-4 4,-4 z"
       id="path3"
       sodipodi:nodetypes="cccccczcccccccccczccccc" /></g></svg>
