<?xml version="1.0" encoding="UTF-8" standalone="no"?>
<!-- Created with Inkscape (http://www.inkscape.org/) -->

<svg
   width="48"
   height="48"
   viewBox="0 0 64 64"
   version="1.1"
   id="svg1"
   xml:space="preserve"
   inkscape:version="1.3.2 (091e20e, 2023-11-25, custom)"
   sodipodi:docname="play-hover.svg"
   xmlns:inkscape="http://www.inkscape.org/namespaces/inkscape"
   xmlns:sodipodi="http://sodipodi.sourceforge.net/DTD/sodipodi-0.dtd"
   xmlns="http://www.w3.org/2000/svg"
   xmlns:svg="http://www.w3.org/2000/svg"><sodipodi:namedview
     id="namedview1"
     pagecolor="#ffffff"
     bordercolor="#000000"
     borderopacity="0.25"
     inkscape:showpageshadow="2"
     inkscape:pageopacity="0.0"
     inkscape:pagecheckerboard="0"
     inkscape:deskcolor="#d1d1d1"
     inkscape:document-units="px"
     showgrid="true"
     inkscape:zoom="5.6568542"
     inkscape:cx="26.604893"
     inkscape:cy="33.941126"
     inkscape:window-width="1220"
     inkscape:window-height="952"
     inkscape:window-x="80"
     inkscape:window-y="188"
     inkscape:window-maximized="0"
     inkscape:current-layer="layer1"><inkscape:grid
       id="grid1"
       units="px"
       originx="0"
       originy="0"
       spacingx="1"
       spacingy="1"
       empcolor="#0099e5"
       empopacity="0.30196078"
       color="#0099e5"
       opacity="0.14901961"
       empspacing="5"
       dotted="false"
       gridanglex="30"
       gridanglez="30"
       visible="true" /></sodipodi:namedview><defs
     id="defs1" /><g
     inkscape:label="Layer 1"
     inkscape:groupmode="layer"
     id="layer1"><path
       id="path3"
       style="opacity:1;fill:#000000;stroke:none;stroke-width:2"
       d="M 9 0 L 0 9.1927083 L 0 55.234375 L 8.859375 64 L 55.398438 64 L 64 54.984375 L 64 9.0260417 L 54.820312 0 L 9 0 z M 12.682292 4.5 L 51.153646 4.5 L 59.5 12.705729 L 59.5 51.276042 L 51.653646 59.5 L 12.580729 59.5 L 4.5 51.502604 L 4.5 12.856771 L 12.682292 4.5 z " /><path
       style="fill:#dea900;stroke:none;stroke-width:0.666668;stroke-linejoin:bevel;fill-opacity:1"
       d="M 51.034213,30.666667 16.367547,13.333334 C 15.174977,12.73705 13.70088,12.000001 13.70088,14.666668 v 34.666664 c 0,2.666667 1.474098,1.929618 2.666667,1.333334 L 51.034213,33.333333 c 1.686548,-0.843274 1.686548,-1.823392 0,-2.666666 z"
       id="path1"
       sodipodi:nodetypes="ssccsss" /></g></svg>
