<?xml version="1.0" encoding="UTF-8" standalone="no"?>
<svg
   width="16"
   height="16"
   viewBox="0 0 0.72 0.72"
   aria-hidden="true"
   role="img"
   class="iconify iconify--twemoji"
   preserveAspectRatio="xMidYMid"
   version="1.1"
   id="svg1"
   inkscape:version="1.3.2 (091e20e, 2023-11-25, custom)"
   xmlns:inkscape="http://www.inkscape.org/namespaces/inkscape"
   xmlns:sodipodi="http://sodipodi.sourceforge.net/DTD/sodipodi-0.dtd"
   xmlns="http://www.w3.org/2000/svg"
   xmlns:svg="http://www.w3.org/2000/svg">
  <defs
     id="defs1" />
  <sodipodi:namedview
     id="namedview1"
     pagecolor="#ffffff"
     bordercolor="#000000"
     borderopacity="0.25"
     inkscape:showpageshadow="2"
     inkscape:pageopacity="0.0"
     inkscape:pagecheckerboard="0"
     inkscape:deskcolor="#d1d1d1"
     inkscape:zoom="8"
     inkscape:cx="102.1875"
     inkscape:cy="29.6875"
     inkscape:window-width="2560"
     inkscape:window-height="1387"
     inkscape:window-x="1592"
     inkscape:window-y="-8"
     inkscape:window-maximized="1"
     inkscape:current-layer="svg1" />
  <path
     fill="#78B159"
     d="m 0.50567442,0.11900959 c -0.008964,0.008964 -0.011322,0.0151024 -0.013104,0.0185225 -0.01188,0.0227886 -0.02619,0.0301688 -0.0500401,0.006318 -0.00234,-0.00234 -0.0735661,-0.0768081 -0.0853382,-0.0903084 -0.007686,-0.00882 -0.019458,-0.0115203 -0.0285121,-0.004716 -0.00684,0.005148 -0.0726301,0.0589156 -0.0906302,0.0811282 -0.013932,0.0171905 -0.0144,0.038413 -0.001422,0.0514094 0.005868,0.005868 0.013086,0.008082 0.020718,0.0104043 0.009936,0.003042 0.0317341,0.001224 0.0444601,0.0139504 0.020394,0.0203945 0.00972,0.0526334 -0.016506,0.0795801 -0.0269461,0.0262267 -0.0591841,0.036901 -0.0795782,0.0165064 -0.012744,-0.0127443 -0.010908,-0.0345249 -0.01395,-0.0444612 -0.002322,-0.007632 -0.004536,-0.0148324 -0.010404,-0.0207186 -0.012978,-0.0129784 -0.0342001,-0.0124923 -0.0514081,0.001422 -0.02223,0.0180005 -0.0759781,0.0837923 -0.0811262,0.0906324 -0.006822,0.009054 -0.004104,0.0208086 0.004716,0.0285128 0.0135,0.0117723 0.0879662,0.0830002 0.0903062,0.0853403 0.023832,0.0238326 0.01647,0.038161 -0.006318,0.0500414 -0.00342,0.001782 -0.00954,0.004122 -0.018522,0.0131043 a 0.06739448,0.06739616 0 0 0 0.0953102,0.0953125 c 0.008964,-0.00896 0.011322,-0.015102 0.013104,-0.018522 0.01188,-0.022789 0.02619,-0.030169 0.0500401,-0.00632 0.00234,0.00234 0.0735661,0.076808 0.0853382,0.090308 0.007686,0.00882 0.019458,0.01152 0.0285121,0.00472 0.00684,-0.00515 0.0726301,-0.058916 0.0906302,-0.081128 0.013932,-0.01719 0.0144,-0.038413 0.001422,-0.0514093 -0.005868,-0.005868 -0.013086,-0.008082 -0.020718,-0.0104043 -0.009936,-0.003042 -0.0317341,-0.001224 -0.0444601,-0.0139504 -0.020394,-0.0203946 -0.00972,-0.0526334 0.016506,-0.0795801 0.026946,-0.0262267 0.0591841,-0.036901 0.0795781,-0.0165064 0.012744,0.0127443 0.010908,0.0345249 0.01395,0.0444612 0.002322,0.007632 0.004536,0.0148324 0.010404,0.0207186 0.0129781,0.0129784 0.0342001,0.0124923 0.0514081,-0.001422 0.02223,-0.0180005 0.075978,-0.0837922 0.081126,-0.0906324 0.00682,-0.009054 0.0041,-0.0208086 -0.00472,-0.0285128 -0.0135,-0.0117723 -0.087966,-0.0830002 -0.090306,-0.0853403 -0.023832,-0.0238326 -0.01647,-0.038161 0.00632,-0.0500413 0.00342,-0.001782 0.00954,-0.004122 0.018522,-0.0131043 a 0.06739447,0.06739615 0 0 0 -0.0953081,-0.0953126 z"
     id="path1"
     style="fill:#1a1a1a;stroke-width:0.0180002" />
</svg>
