<?xml version="1.0" encoding="UTF-8" standalone="no"?>
<svg
   fill="#000000"
   width="16"
   height="16"
   viewBox="0 0 0.48 0.48"
   data-name="Layer 1"
   version="1.1"
   id="svg1"
   sodipodi:docname="tweaks.svg"
   inkscape:version="1.3.2 (091e20e, 2023-11-25, custom)"
   xmlns:inkscape="http://www.inkscape.org/namespaces/inkscape"
   xmlns:sodipodi="http://sodipodi.sourceforge.net/DTD/sodipodi-0.dtd"
   xmlns="http://www.w3.org/2000/svg"
   xmlns:svg="http://www.w3.org/2000/svg">
  <defs
     id="defs1" />
  <sodipodi:namedview
     id="namedview1"
     pagecolor="#ffffff"
     bordercolor="#000000"
     borderopacity="0.25"
     inkscape:showpageshadow="2"
     inkscape:pageopacity="0.0"
     inkscape:pagecheckerboard="0"
     inkscape:deskcolor="#d1d1d1"
     inkscape:zoom="4.224963"
     inkscape:cx="235.62336"
     inkscape:cy="34.438171"
     inkscape:window-width="2560"
     inkscape:window-height="1387"
     inkscape:window-x="1592"
     inkscape:window-y="-8"
     inkscape:window-maximized="1"
     inkscape:current-layer="svg1" />
  <path
     d="M 0.4436207,0.20058175 0.2793056,0.03619245 a 0.02098532,0.0209948 0 0 0 -0.035675,0.011967 l -0.015319,0.1079133 -0.041971,0.04199 -0.00693,-0.00399 a 0.02098532,0.0209948 0 0 0 -0.023504,0.034222 l -0.024133,0.024564 -0.00693,-0.00399 a 0.02098532,0.0209948 0 0 0 -0.023289,0.0342226 l -0.024547,0.024354 -0.00672,-0.00441 a 0.02098532,0.0209948 0 0 0 -0.02875,0.00777 0.02098532,0.0209948 0 0 0 0.00525,0.026454 l -0.010703,0.010707 a 0.01951635,0.01952517 0 0 0 -0.00441,0.00693 A 0.02098532,0.0209948 0 0 0 0.03,0.36287155 v 0.066134 a 0.02098532,0.0209948 0 0 0 0.020985,0.020995 h 0.065684 a 0.02098532,0.0209948 0 0 0 0.00797,-0.00168 0.01951635,0.01952517 0 0 0 0.00693,-0.00441 l 0.035675,-0.035901 0.00693,0.00399 a 0.02098532,0.0209948 0 0 0 0.02875,-0.00756 0.02098532,0.0209948 0 0 0 -0.00504,-0.026663 l 0.024553,-0.024354 0.00693,0.00399 a 0.02098532,0.0209948 0 0 0 0.010283,0.00273 0.02098532,0.0209948 0 0 0 0.012591,-0.036111 l 0.024553,-0.024354 0.00693,0.00399 a 0.02098532,0.0209948 0 0 0 0.010283,0.00273 0.02098532,0.0209948 0 0 0 0.013011,-0.037161 l 0.016578,-0.016586 0.1080744,-0.015326 a 0.02098532,0.0209948 0 0 0 0.016998,-0.014276 0.02098532,0.0209948 0 0 0 -0.00504,-0.022464 z m -0.3355553,0.2074286 h -0.036095 v -0.036111 l 0.011962,-0.011967 0.045748,0.027083 z m 0.052253,-0.052487 -0.046378,-0.026243 0.023923,-0.023934 0.045538,0.026244 z m 0.054772,-0.054586 -0.045748,-0.026454 0.024133,-0.023934 0.046378,0.026244 z m 0.054772,-0.054797 -0.045748,-0.027083 0.023923,-0.023934 0.036095,0.036111 z m 0.051414,-0.036531 -0.050994,-0.051017 0.00902,-0.062984 0.1049266,0.104974 z"
     id="path1"
     style="stroke-width:0.02099" />
</svg>
