<?xml version="1.0" encoding="UTF-8" standalone="no"?>
<!-- Created with Inkscape (http://www.inkscape.org/) -->

<svg
   width="16"
   height="16"
   viewBox="0 0 4.2333333 4.2333333"
   version="1.1"
   id="svg1"
   inkscape:version="1.3.2 (091e20e, 2023-11-25, custom)"
   sodipodi:docname="wrench-small.svg"
   xmlns:inkscape="http://www.inkscape.org/namespaces/inkscape"
   xmlns:sodipodi="http://sodipodi.sourceforge.net/DTD/sodipodi-0.dtd"
   xmlns="http://www.w3.org/2000/svg"
   xmlns:svg="http://www.w3.org/2000/svg">
  <sodipodi:namedview
     id="namedview1"
     pagecolor="#7c7c7c"
     bordercolor="#000000"
     borderopacity="0.25"
     inkscape:showpageshadow="2"
     inkscape:pageopacity="0.0"
     inkscape:pagecheckerboard="0"
     inkscape:deskcolor="#d1d1d1"
     inkscape:document-units="px"
     inkscape:zoom="22.032368"
     inkscape:cx="38.239194"
     inkscape:cy="12.822044"
     inkscape:window-width="2510"
     inkscape:window-height="1285"
     inkscape:window-x="-8"
     inkscape:window-y="-8"
     inkscape:window-maximized="1"
     inkscape:current-layer="layer1"
     showgrid="true">
    <inkscape:grid
       id="grid1"
       units="px"
       originx="0"
       originy="0"
       spacingx="0.26458333"
       spacingy="0.26458333"
       empcolor="#0099e5"
       empopacity="0.30196078"
       color="#0099e5"
       opacity="0.14901961"
       empspacing="5"
       dotted="false"
       gridanglex="30"
       gridanglez="30"
       visible="true" />
  </sodipodi:namedview>
  <defs
     id="defs1" />
  <g
     inkscape:label="Layer 1"
     inkscape:groupmode="layer"
     id="layer1">
    <path
       style="fill:#ffffff;stroke:none;stroke-width:0.0544731;stroke-linejoin:bevel;stroke-dasharray:none"
       d="M 1.1361519,2.7703431 2.770343,1.1361519 V 0.7003676 c 0,-0.10894613 0.2178921,-0.43578427 0.4357843,-0.43578427 H 3.5329655 L 3.2061273,0.59142151 C 3.0971812,0.70036764 3.2193442,0.84082124 3.3150734,0.91825976 3.4108024,0.99569828 3.5329655,1.1361519 3.6419116,1.0272058 L 3.9687498,0.7003676 v 0.3268382 c 0,0.2178922 -0.3018169,0.4336085 -0.4357843,0.4357843 H 3.0971812 L 1.4629901,3.0971813 v 0.4357841 c 0,0.108946 -0.2178921,0.4357842 -0.4357843,0.4357842 H 0.70036764 L 1.0272058,3.6419114 c 0.1089461,-0.108946 0,-0.2178919 -0.10894604,-0.3268382 C 0.80931368,3.2061272 0.70036764,3.0971813 0.59142151,3.2061272 L 0.26458333,3.5329654 V 3.2061272 c 0,-0.2178918 0.32683818,-0.4357841 0.43578431,-0.4357841 z"
       id="path3"
       sodipodi:nodetypes="cccccczcccccccccczccccc" />
  </g>
</svg>
